<svg width="241" height="123" viewBox="0 0 241 123" fill="none" xmlns="http://www.w3.org/2000/svg">
<path d="M194.658 122.089H188.122V103.693H197.079C197.852 103.703 198.618 103.832 199.352 104.075C200.154 104.33 200.902 104.731 201.557 105.258C202.253 105.825 202.821 106.533 203.222 107.335C203.685 108.288 203.911 109.339 203.882 110.397C203.875 111.182 203.718 111.958 203.419 112.684C203.109 113.457 202.652 114.163 202.072 114.761C201.454 115.394 200.724 115.907 199.918 116.273C199.026 116.676 198.055 116.878 197.076 116.864H194.658V122.089ZM194.658 108.892V111.705H195.226C195.653 111.714 196.073 111.605 196.442 111.391C196.619 111.28 196.761 111.124 196.855 110.938C196.948 110.752 196.988 110.545 196.971 110.338C196.988 110.124 196.948 109.909 196.855 109.715C196.762 109.521 196.62 109.355 196.442 109.234C196.071 109.001 195.639 108.882 195.2 108.892H194.658Z" fill="#EDBB30"/>
<path d="M210.781 122.089H204.319V103.693H213.168C213.93 103.701 214.686 103.82 215.413 104.046C216.209 104.285 216.953 104.669 217.607 105.178C218.354 105.755 218.952 106.5 219.352 107.352C219.751 108.205 219.942 109.14 219.906 110.08C219.898 110.992 219.672 111.888 219.247 112.695C218.787 113.577 218.122 114.335 217.306 114.906L220.767 122.083H214.004L211.176 116.222H210.781V122.089ZM211.31 108.631H210.781V111.311H211.35C211.766 111.317 212.176 111.213 212.538 111.009C212.71 110.911 212.851 110.766 212.945 110.592C213.038 110.418 213.08 110.221 213.066 110.024C213.082 109.815 213.042 109.606 212.949 109.419C212.856 109.232 212.714 109.073 212.538 108.959C212.169 108.735 211.742 108.621 211.31 108.631Z" fill="#EDBB30"/>
<path d="M220.583 112.888C220.575 111.6 220.822 110.322 221.31 109.129C221.774 107.986 222.461 106.945 223.331 106.067C225.148 104.232 227.623 103.191 230.211 103.173C232.799 103.155 235.289 104.162 237.131 105.972C238.974 107.782 240.019 110.247 240.037 112.825C240.055 115.403 239.044 117.882 237.227 119.717C236.348 120.593 235.306 121.287 234.158 121.76C231.675 122.759 228.9 122.759 226.417 121.76C225.267 121.291 224.224 120.597 223.348 119.719C222.472 118.841 221.782 117.797 221.319 116.649C220.827 115.456 220.577 114.178 220.583 112.888ZM227.451 112.888C227.448 113.323 227.505 113.756 227.622 114.176C227.724 114.556 227.899 114.913 228.136 115.228C228.37 115.531 228.673 115.775 229.02 115.939C229.415 116.111 229.843 116.201 230.274 116.201C230.706 116.201 231.133 116.111 231.529 115.939C231.878 115.773 232.186 115.53 232.427 115.228C232.672 114.916 232.852 114.558 232.956 114.176C233.184 113.332 233.184 112.443 232.956 111.6C232.85 111.215 232.67 110.854 232.427 110.536C232.188 110.229 231.881 109.982 231.529 109.814C231.133 109.642 230.706 109.552 230.274 109.552C229.843 109.552 229.415 109.642 229.02 109.814C228.671 109.98 228.368 110.228 228.136 110.536C227.901 110.856 227.726 111.217 227.622 111.6C227.506 112.02 227.45 112.453 227.454 112.888H227.451Z" fill="#EDBB30"/>
<path d="M8.02241 100.593H0.875488L6.62712 76.6982H15.678L21.4637 100.591H14.3168L13.5012 96.4614H8.83798L8.02241 100.593ZM11.1483 84.6199L9.95761 90.6284H12.339L11.1483 84.6199Z" fill="#595E68"/>
<path d="M31.4008 100.593H22.9609V76.6982H34.4983C35.4995 76.7103 36.4927 76.8774 37.4423 77.1934C38.4772 77.5253 39.4409 78.0465 40.284 78.7302C41.1809 79.469 41.9111 80.3881 42.4267 81.4274C43.0222 82.6622 43.3144 84.0203 43.2792 85.3897C43.2706 86.408 43.0681 87.4154 42.6824 88.3585C42.2846 89.3611 41.6949 90.2772 40.9462 91.0557C40.1523 91.8757 39.2117 92.5409 38.1726 93.017C37.0205 93.5421 35.7652 93.8041 34.4983 93.784H31.4008V100.593ZM31.4008 83.4595V87.1104H32.1113C32.6613 87.1207 33.2034 86.9786 33.677 86.7C33.9051 86.5565 34.0893 86.3535 34.2096 86.113C34.3298 85.8724 34.3815 85.6037 34.3591 85.3359C34.3818 85.0581 34.3308 84.7793 34.2111 84.5275C34.0913 84.2756 33.9072 84.0595 33.677 83.901C33.1997 83.5984 32.6429 83.4438 32.0772 83.4566L31.4008 83.4595Z" fill="#595E68"/>
<path d="M49.5707 100.593H42.4238L48.1755 76.6982H57.2263L63.0121 100.591H55.868L55.0524 96.4614H50.3892L49.5707 100.593ZM52.6966 84.6199L51.506 90.6284H53.8873L52.6966 84.6199Z" fill="#595E68"/>
<path d="M77.7123 76.6982H86.425V100.591H77.3315L73.2139 91.251V100.591H64.5068V76.6982H73.66L77.7094 85.9132L77.7123 76.6982Z" fill="#595E68"/>
<path d="M95.0698 100.593H87.9229L93.6745 76.6982H102.725L108.511 100.591H101.364L100.549 96.4614H95.8854L95.0698 100.593ZM98.1957 84.6199L97.005 90.6284H99.3863L98.1957 84.6199Z" fill="#595E68"/>
<path d="M116.883 94.1435C117.677 94.1435 118.204 94.0406 118.466 93.835C118.583 93.755 118.68 93.6484 118.748 93.5239C118.816 93.3994 118.854 93.2606 118.858 93.1189C118.858 92.7548 118.637 92.4718 118.196 92.2699C117.659 92.0299 117.108 91.8248 116.545 91.6557C115.887 91.4501 115.167 91.2057 114.385 90.9227C113.598 90.6356 112.867 90.2142 112.225 89.6774C111.535 89.0915 110.974 88.371 110.574 87.5604C110.133 86.6963 109.912 85.5699 109.912 84.1812C109.912 82.634 110.218 81.3482 110.83 80.3236C111.401 79.344 112.186 78.5046 113.126 77.867C114.037 77.2566 115.052 76.8173 116.121 76.5708C117.119 76.3299 118.141 76.2036 119.168 76.1944C119.825 76.1944 120.483 76.2227 121.143 76.2793C121.809 76.3381 122.47 76.4526 123.118 76.6217C123.803 76.8025 124.469 77.048 125.107 77.3548C125.83 77.7074 126.51 78.1424 127.133 78.651V85.5793C126.092 84.7964 124.924 84.1963 123.68 83.8048C122.713 83.5217 121.711 83.3722 120.702 83.3604C120.565 83.3641 120.429 83.3755 120.293 83.3944C120.108 83.4177 119.925 83.4575 119.747 83.5133C119.576 83.5646 119.414 83.645 119.27 83.751C119.203 83.8001 119.15 83.8647 119.114 83.9392C119.078 84.0138 119.062 84.0959 119.065 84.1783C119.066 84.3354 119.113 84.4888 119.201 84.6192C119.289 84.7496 119.414 84.8512 119.56 84.9114C119.972 85.1126 120.406 85.2673 120.853 85.3727C121.385 85.5085 121.975 85.651 122.623 85.8001C123.296 85.957 123.952 86.1798 124.581 86.4651C125.592 86.9097 126.444 87.6487 127.025 88.585C127.671 89.6118 128.001 90.8039 127.977 92.0152C128.011 93.4032 127.726 94.7807 127.144 96.0425C126.621 97.1383 125.86 98.1049 124.916 98.8727C123.954 99.6437 122.85 100.221 121.665 100.571C120.402 100.951 119.089 101.142 117.769 101.137C117.294 101.137 116.744 101.114 116.118 101.069C115.463 101.018 114.814 100.909 114.178 100.743C113.484 100.564 112.812 100.313 112.171 99.9935C111.482 99.6501 110.855 99.1948 110.316 98.6463V90.9001C110.676 91.2557 111.056 91.5921 111.452 91.9076C111.945 92.3019 112.468 92.6559 113.018 92.9661C113.609 93.3064 114.23 93.5906 114.874 93.8152C115.52 94.0364 116.199 94.1474 116.883 94.1435Z" fill="#595E68"/>
<path d="M129.582 76.6982H145.101V83.6265H138.281V85.6076H144.532V91.4434H138.281V93.6793H145.427V100.608H129.582V76.6982Z" fill="#595E68"/>
<path d="M160.304 76.6982H169.017V100.591H159.923L155.806 91.251V100.591H147.099V76.6982H156.252L160.301 85.9132L160.304 76.6982Z" fill="#595E68"/>
<path d="M183.547 76.6982H192.768L186.846 87.5859L193.788 100.591H184.567L179.429 90.2151V100.591H170.716V76.6982H179.429V84.9934L183.547 76.6982Z" fill="#595E68"/>
<path d="M191.168 88.6472C191.157 86.9777 191.473 85.3221 192.1 83.7736C192.697 82.2906 193.581 80.9393 194.703 79.7972C196.151 78.3185 197.945 77.2218 199.925 76.6057C201.904 75.9896 204.006 75.8735 206.042 76.268C208.078 76.6624 209.983 77.5549 211.586 78.8651C213.189 80.1754 214.44 81.8622 215.226 83.7736C216.497 86.9043 216.497 90.4043 215.226 93.535C214.619 95.0166 213.729 96.367 212.606 97.5114C211.47 98.6529 210.118 99.5582 208.627 100.175C205.431 101.472 201.852 101.472 198.656 100.175C197.173 99.5594 195.828 98.6543 194.702 97.5129C193.576 96.3716 192.691 95.017 192.1 93.5293C191.472 91.9782 191.155 90.3196 191.168 88.6472ZM200.017 88.6472C200.013 89.2123 200.088 89.7751 200.239 90.3199C200.371 90.8179 200.599 91.2858 200.909 91.6982C201.209 92.0911 201.599 92.4074 202.046 92.6208C202.555 92.8463 203.106 92.9628 203.663 92.9628C204.22 92.9628 204.771 92.8463 205.28 92.6208C205.731 92.4046 206.126 92.0891 206.436 91.6982C206.752 91.2931 206.984 90.8293 207.118 90.334C207.413 89.2383 207.413 88.0845 207.118 86.9887C206.982 86.4892 206.75 86.0204 206.436 85.6076C206.13 85.2089 205.734 84.8871 205.28 84.668C204.771 84.4425 204.22 84.326 203.663 84.326C203.106 84.326 202.555 84.4425 202.046 84.668C201.596 84.8846 201.206 85.2071 200.909 85.6076C200.606 86.0239 200.381 86.492 200.247 86.9887C200.095 87.5285 200.017 88.0865 200.017 88.6472Z" fill="#595E68"/>
<path d="M21.6226 27.3991L30.7758 53.5302L52.3103 55.7547L55.6976 58.5849L110.645 37.6415L115.09 41.7623L170.406 11.0689L208.681 60.0312L216.638 56.2755L170.924 0L103.291 25.4547L102.188 17.3264L96.175 17.9094L88.3319 21.0085L87.6272 33.4387L21.4379 16.9811L0 68.7934L6.69224 68.0349L21.6226 27.3991Z" fill="#EDBB30"/>
</svg>
